HIERARCHY
ROOT Hips
{
	OFFSET 0.000000 0.000000 0.000000
	CHANNELS 6 Xposition Yposition Zposition Zrotation Yrotation Xrotation 
	JOINT LHipJoint
	{
		OFFSET 0.000000 0.000000 0.000000
		CHANNELS 3 Zrotation Yrotation Xrotation
		JOINT LeftUpLeg
		{
			OFFSET 1.363060 -1.794630 0.839290
			CHANNELS 3 Zrotation Yrotation Xrotation
			JOINT LeftLeg
			{
				OFFSET 2.448110 -6.726130 0.000000
				CHANNELS 3 Zrotation Yrotation Xrotation
				JOINT LeftFoot
				{
					OFFSET 2.562200 -7.039590 0.000000
					CHANNELS 3 Zrotation Yrotation Xrotation
					JOINT LeftToeBase
					{
						OFFSET 0.157640 -0.433110 2.322550
						CHANNELS 3 Zrotation Yrotation Xrotation
						End Site
						{
							OFFSET 0.000000 0.000000 0.000000
						}
					}
				}
			}
		}
	}
	JOINT RHipJoint
	{
		OFFSET 0.000000 0.000000 0.000000
		CHANNELS 3 Zrotation Yrotation Xrotation
		JOINT RightUpLeg
		{
			OFFSET -1.305520 -1.794630 0.839290
			CHANNELS 3 Zrotation Yrotation Xrotation
			JOINT RightLeg
			{
				OFFSET -2.542530 -6.985550 0.000000
				CHANNELS 3 Zrotation Yrotation Xrotation
				JOINT RightFoot
				{
					OFFSET -2.568260 -7.056230 0.000000
					CHANNELS 3 Zrotation Yrotation Xrotation
					JOINT RightToeBase
					{
						OFFSET -0.164730 -0.452590 2.363150
						CHANNELS 3 Zrotation Yrotation Xrotation
						End Site
						{
							OFFSET 0.000000 0.000000 0.000000
						}
					}
				}
			}
		}
	}
	JOINT LowerBack
	{
		OFFSET 0.000000 0.000000 0.000000
		CHANNELS 3 Zrotation Yrotation Xrotation
		JOINT Spine
		{
			OFFSET 0.028270 2.035590 -0.193380
			CHANNELS 3 Zrotation Yrotation Xrotation
			JOINT Spine1
			{
				OFFSET 0.056720 2.048850 -0.042750
				CHANNELS 3 Zrotation Yrotation Xrotation
				JOINT Neck
				{
					OFFSET 0.000000 0.000000 0.000000
					CHANNELS 3 Zrotation Yrotation Xrotation
					JOINT Neck1
					{
						OFFSET -0.054170 1.746240 0.172020
						CHANNELS 3 Zrotation Yrotation Xrotation
						JOINT Head
						{
							OFFSET 0.104070 1.761360 -0.123970
							CHANNELS 3 Zrotation Yrotation Xrotation
							End Site
							{
								OFFSET 0.000000 0.000000 0.000000
							}
						}
					}
				}
				JOINT LeftShoulder
				{
					OFFSET 0.000000 0.000000 0.000000
					CHANNELS 3 Zrotation Yrotation Xrotation
					JOINT LeftArm
					{
						OFFSET 3.362410 1.200890 -0.311210
						CHANNELS 3 Zrotation Yrotation Xrotation
						JOINT LeftForeArm
						{
							OFFSET 4.983000 -0.000000 -0.000000
							CHANNELS 3 Zrotation Yrotation Xrotation
							JOINT LeftHand
							{
								OFFSET 3.483560 -0.000000 -0.000000
								CHANNELS 3 Zrotation Yrotation Xrotation
								JOINT LeftFingerBase
								{
									OFFSET 0.000000 0.000000 0.000000
									CHANNELS 3 Zrotation Yrotation Xrotation
									JOINT LeftHandIndex1
									{
										OFFSET 0.715260 -0.000000 -0.000000
										CHANNELS 3 Zrotation Yrotation Xrotation
										End Site
										{
											OFFSET 0.000000 0.000000 0.000000
										}
									}
								}
								JOINT LThumb
								{
									OFFSET 0.000000 0.000000 0.000000
									CHANNELS 3 Zrotation Yrotation Xrotation
									End Site
									{
										OFFSET 0.000000 0.000000 0.000000
									}
								}
							}
						}
					}
				}
				JOINT RightShoulder
				{
					OFFSET 0.000000 0.000000 0.000000
					CHANNELS 3 Zrotation Yrotation Xrotation
					JOINT RightArm
					{
						OFFSET -3.136600 1.374050 -0.404650
						CHANNELS 3 Zrotation Yrotation Xrotation
						JOINT RightForeArm
						{
							OFFSET -5.241900 -0.000000 -0.000000
							CHANNELS 3 Zrotation Yrotation Xrotation
							JOINT RightHand
							{
								OFFSET -3.444170 -0.000000 -0.000000
								CHANNELS 3 Zrotation Yrotation Xrotation
								JOINT RightFingerBase
								{
									OFFSET 0.000000 0.000000 0.000000
									CHANNELS 3 Zrotation Yrotation Xrotation
									JOINT RightHandIndex1
									{
										OFFSET -0.622530 -0.000000 -0.000000
										CHANNELS 3 Zrotation Yrotation Xrotation
										End Site
										{
											OFFSET 0.000000 0.000000 0.000000
										}
									}
								}
								JOINT RThumb
								{
									OFFSET 0.000000 0.000000 0.000000
									CHANNELS 3 Zrotation Yrotation Xrotation
									End Site
									{
										OFFSET 0.000000 0.000000 0.000000
									}
								}
							}
						}
					}
				}
			}
		}
	}
}
MOTION
Frames: 5
Frame Time: 0.008333
-0.856094 17.398618 1.023298 -26.161206 -72.249846 40.881491 -10.289466 -3.893277 -3.530081 -1.685230 -15.294285 -15.536514 -0.604100 0.175901 13.753541 1.141995 6.993628 -4.140942 0.473600 -0.000000 -36.823600 6.373440 4.334163 2.883638 -5.678536 -5.497231 -91.467175 2.549583 -0.451849 7.543568 -0.593020 -2.813168 13.993038 -1.844300 0.000000 -74.087500 -0.848654 -1.779159 7.383451 -1.700030 -1.642565 -1.727188 -9.268357 -1.674338 -0.630784 6.705235 1.367990 1.869109 -5.296297 -0.425690 2.078836 0.000000 0.000000 0.000000 -7.078058 -8.051292 3.167103 -52.425963 -16.560357 11.631365 -3.445499 -33.198943 0.000765 4.818130 -4.203775 -0.184300 -0.104625 0.103765 0.000000 0.000000 0.000000 0.000000 0.000000 0.000000 0.000000 18.722668 -0.811195 0.582862 69.713624 2.745967 -4.631571 2.438215 26.124434 0.006637 -2.177324 10.766427 -0.212021 0.053829 -0.111574 0.000000 0.000000 0.000000 0.000000 0.000000 0.000000 0.000000 
-0.858203 17.397633 1.018431 -25.396725 -72.399007 40.307014 -10.239656 -3.880440 -3.557785 -1.986241 -15.250130 -15.633386 -0.637504 0.150990 13.571427 1.131191 6.959571 -4.022649 0.489500 0.000000 -36.777600 6.396213 4.400702 3.028431 -6.008793 -5.634092 -90.043398 2.502367 0.128135 3.150267 -0.473643 -2.405965 14.324042 -1.695700 0.000001 -74.627400 -1.036074 -1.790629 7.285193 -1.719247 -1.646354 -1.737296 -9.233262 -1.677487 -0.635301 6.710812 1.477520 1.946165 -5.272115 -0.424726 2.099303 0.000000 0.000000 0.000000 -7.118633 -7.968828 3.134164 -52.724450 -16.526092 11.734659 -3.410900 -33.950663 0.000720 4.827460 -4.286435 -0.188381 -0.104894 0.106614 0.000000 0.000000 0.000000 0.000000 0.000000 0.000000 0.000000 18.620901 -0.679868 0.559793 69.667670 3.034235 -4.925891 2.396980 26.596379 0.006261 -2.269636 10.812917 -0.221719 0.053184 -0.114791 0.000000 0.000000 0.000000 0.000000 0.000000 0.000000 0.000000 
-0.861150 17.396097 1.013372 -24.583552 -72.516721 39.612862 -10.189560 -3.858415 -3.563717 -2.299895 -15.249563 -15.655985 -0.671362 0.126953 13.387552 1.123854 6.949757 -3.915660 0.505600 -0.000000 -36.710500 6.399780 4.485129 3.098004 -6.264056 -5.804527 -88.492148 2.431115 0.646704 -0.997271 -0.355068 -1.985714 14.670056 -1.531700 -0.000000 -75.020201 -1.224517 -1.810955 7.230448 -1.737294 -1.656753 -1.735402 -9.196450 -1.686429 -0.636832 6.728032 1.561736 2.016855 -5.246857 -0.423673 2.118146 0.000000 0.000000 0.000000 -7.139109 -7.879484 3.097893 -53.042709 -16.488004 11.861148 -3.379011 -34.630945 0.000680 4.831504 -4.360753 -0.191862 -0.105150 0.109303 0.000000 0.000000 0.000000 0.000000 0.000000 0.000000 0.000000 18.523697 -0.575604 0.532080 69.615697 3.319438 -5.159782 2.354008 27.085496 0.005850 -2.381420 10.865558 -0.233617 0.052563 -0.117858 0.000000 0.000000 0.000000 0.000000 0.000000 0.000000 0.000000 
-0.864966 17.394008 1.008100 -23.714819 -72.605960 38.793307 -10.139627 -3.828016 -3.550260 -2.629306 -15.295748 -15.598247 -0.705719 0.103784 13.199723 1.120393 6.967626 -3.819192 0.522400 0.000000 -36.624800 6.386397 4.581697 3.096978 -6.415795 -6.002829 -86.868930 2.351512 1.093318 -4.811365 -0.236804 -1.537995 14.997095 -1.347300 0.000001 -75.370400 -1.418793 -1.838678 7.219572 -1.755936 -1.672461 -1.723526 -9.158263 -1.700137 -0.639551 6.759763 1.627278 2.085566 -5.220898 -0.422579 2.136526 0.000000 0.000000 0.000000 -7.135759 -7.800099 3.059464 -53.380313 -16.424106 12.000946 -3.349108 -35.246281 0.000646 4.825570 -4.423114 -0.194345 -0.105285 0.111747 0.000000 0.000000 0.000000 0.000000 0.000000 0.000000 0.000000 18.435019 -0.492637 0.501348 69.556935 3.588727 -5.342387 2.309497 27.599194 0.005407 -2.500283 10.919786 -0.246217 0.051861 -0.120739 0.000000 0.000000 0.000000 0.000000 0.000000 0.000000 0.000000 
-0.869647 17.391251 1.002827 -22.816124 -72.668277 37.883800 -10.092861 -3.790936 -3.519353 -2.964472 -15.372169 -15.485778 -0.740464 0.082083 13.027959 1.118748 6.995550 -3.742366 0.537300 -0.000000 -36.521600 6.360321 4.681718 3.039342 -6.425690 -6.219822 -85.256931 2.282285 1.464246 -8.196343 -0.117249 -1.043947 15.261002 -1.136200 0.000000 -75.605300 -1.613120 -1.870989 7.240221 -1.774797 -1.691646 -1.705556 -9.119097 -1.716934 -0.643235 6.804324 1.672936 2.151643 -5.194417 -0.421456 2.154468 0.000000 0.000000 0.000000 -7.113111 -7.730780 3.018852 -53.733380 -16.332822 12.160531 -3.321266 -35.792852 0.000623 4.811165 -4.474804 -0.196130 -0.105290 0.113860 0.000000 0.000000 0.000000 0.000000 0.000000 0.000000 0.000000 18.353447 -0.432316 0.467776 69.489504 3.840915 -5.466899 2.264942 28.132971 0.004947 -2.623087 10.979610 -0.259516 0.051117 -0.123423 0.000000 0.000000 0.000000 0.000000 0.000000 0.000000 0.000000 
